<svg xmlns="http://www.w3.org/2000/svg" xmlns:xlink="http://www.w3.org/1999/xlink" width="18.159" height="30.413" viewBox="0 0 18.159 30.413"><defs><style>.a{fill:url(#a);}</style><linearGradient id="a" x1="0.7" y1="1" x2="0.7" y2="0.184" gradientUnits="objectBoundingBox"><stop offset="0" stop-color="#4181ff"/><stop offset="1" stop-color="#d501e4"/></linearGradient></defs><g transform="translate(0 30.413) rotate(-90)"><g transform="translate(0 0)"><path class="a" d="M26.394,18.159H.59A.731.731,0,0,1,0,17.418V.741A.731.731,0,0,1,.59,0h25.8a.731.731,0,0,1,.59.741V17.418C26.983,17.789,26.836,18.159,26.394,18.159ZM1.327,16.677H25.8V1.482H1.327Z" transform="translate(0)"/><g transform="translate(25.804 5.393)"><path class="a" d="M3.981,7.372H.59A.634.634,0,0,1,0,6.783V.59A.634.634,0,0,1,.59,0H3.981a.634.634,0,0,1,.59.59V6.635C4.718,7.078,4.423,7.372,3.981,7.372ZM1.18,6.045H3.244V1.18H1.18Z" transform="translate(0)"/></g></g></g></svg>