<svg xmlns="http://www.w3.org/2000/svg" width="20.6" height="23.175" viewBox="0 0 20.6 23.175"><defs><style>.a{fill:#fff;}</style></defs><g transform="translate(-1.7 -0.425)"><path class="a" d="M12,10.9c-.1,0-.2,0-.2-.1L3.5,6.1a.764.764,0,0,1-.2-.5.52.52,0,0,1,.2-.4L11.7.5a.454.454,0,0,1,.5,0l8.2,4.7a.4.4,0,0,1,.2.4c0,.1,0,.4-.1.5l-8.2,4.7C12.2,10.8,12.1,10.9,12,10.9ZM4.8,5.6,12,9.8l7.2-4.2L12,1.5Z"/><path class="a" d="M10.4,23.6c-.1,0-.2,0-.2-.1L2,18.8a.536.536,0,0,1-.3-.4V8.9a.52.52,0,0,1,.2-.4.454.454,0,0,1,.5,0l8.2,4.7a.4.4,0,0,1,.2.4v9.5a.52.52,0,0,1-.2.4C10.5,23.6,10.5,23.6,10.4,23.6ZM2.7,18.1l7.2,4.2V14L2.7,9.8Z"/><path class="a" d="M13.6,23.6c-.1,0-.2,0-.2-.1a.4.4,0,0,1-.2-.4V13.6a.52.52,0,0,1,.2-.4l8.2-4.7a.454.454,0,0,1,.5,0,.4.4,0,0,1,.2.4v9.5c0,.2-.1.3-.3.4l-8.2,4.7C13.8,23.6,13.7,23.6,13.6,23.6Zm.5-9.7v8.3L21.3,18V9.8Z"/></g></svg>