<svg xmlns="http://www.w3.org/2000/svg" xmlns:xlink="http://www.w3.org/1999/xlink" width="33.434" height="21" viewBox="0 0 33.434 21"><defs><style>.a{fill:url(#a);}</style><linearGradient id="a" x1="0.5" y1="0.5" x2="0.916" y2="1" gradientUnits="objectBoundingBox"><stop offset="0" stop-color="#4181ff"/><stop offset="1" stop-color="#d501e4"/></linearGradient></defs><g transform="translate(-2.9 -7.4)"><g transform="translate(2.9 7.4)"><path class="a" d="M29.15,21.907H3.591a.653.653,0,0,1-.691-.691V8.091A.653.653,0,0,1,3.591,7.4H29.012a.653.653,0,0,1,.691.691V21.216A.556.556,0,0,1,29.15,21.907ZM4.282,20.525H28.321V8.782H4.282Z" transform="translate(-2.9 -7.4)"/><g transform="translate(8.013 1.934)"><path class="a" d="M14.088,19.576a5.388,5.388,0,1,1,5.388-5.388A5.308,5.308,0,0,1,14.088,19.576Zm0-9.533a4.007,4.007,0,1,0,4.007,4.007A3.843,3.843,0,0,0,14.088,10.043Z" transform="translate(-8.7 -8.8)"/></g><g transform="translate(2.901 2.751)"><g transform="translate(0 0.115)"><path class="a" d="M5.691,18.214A.653.653,0,0,1,5,17.523V13.378a.632.632,0,0,1,.553-.691,3.379,3.379,0,0,0,2.9-2.625.609.609,0,0,1,.829-.553.609.609,0,0,1,.553.829,4.762,4.762,0,0,1-3.454,3.73v3.592C6.382,17.938,5.967,18.214,5.691,18.214Z" transform="translate(-5 -9.474)"/></g><g transform="translate(5.112 3.743)"><path class="a" d="M11.187,17.212a.508.508,0,0,1-.414-.138A5.361,5.361,0,0,1,8.7,12.791a.691.691,0,1,1,1.382,0,4.131,4.131,0,0,0,1.52,3.178.683.683,0,0,1,.138.967C11.6,17.212,11.463,17.212,11.187,17.212Z" transform="translate(-8.7 -12.1)"/></g><g transform="translate(16.303 0.151)"><path class="a" d="M17.491,18.2h0c-.553-.138-.691-.414-.691-.829a4.417,4.417,0,0,1,3.454-3.592V10.191a.691.691,0,1,1,1.382,0v4.145a.632.632,0,0,1-.553.691,3.379,3.379,0,0,0-2.9,2.625C18.182,18.066,17.905,18.2,17.491,18.2Z" transform="translate(-16.8 -9.5)"/></g><g transform="translate(12.836)"><path class="a" d="M14.994,18.246a1.047,1.047,0,0,1-.553-.276A.683.683,0,0,1,14.58,17a4.082,4.082,0,0,0,0-6.355.691.691,0,1,1,.829-1.105,5.462,5.462,0,0,1,0,8.566A.508.508,0,0,1,14.994,18.246Z" transform="translate(-14.291 -9.391)"/></g></g><g transform="translate(2.349 2.349)"><path class="a" d="M5.705,11.311A1.189,1.189,0,0,1,4.6,10.205,1.189,1.189,0,0,1,5.705,9.1a1.189,1.189,0,0,1,1.105,1.105A1.09,1.09,0,0,1,5.705,11.311Zm0-1.382a.3.3,0,0,0-.276.276c0,.276.553.276.553,0A.3.3,0,0,0,5.705,9.929Z" transform="translate(-4.6 -9.1)"/><g transform="translate(20.033 7.599)"><path class="a" d="M20.205,16.811A1.189,1.189,0,0,1,19.1,15.705a1.105,1.105,0,1,1,2.211,0A1.189,1.189,0,0,1,20.205,16.811Zm0-1.382a.3.3,0,0,0-.276.276c0,.276.553.276.553,0A.3.3,0,0,0,20.205,15.429Z" transform="translate(-19.1 -14.6)"/></g></g></g><g transform="translate(6.216 10.578)"><path class="a" d="M31.412,24.345H5.991a.653.653,0,0,1-.691-.691V20.338a.653.653,0,0,1,.691-.691H27.543V10.391a.653.653,0,0,1,.691-.691H31.55a.653.653,0,0,1,.691.691V23.516C32.1,23.93,31.826,24.345,31.412,24.345ZM6.682,22.963H30.721V11.22H28.787v9.257a.653.653,0,0,1-.691.691H6.682Z" transform="translate(-5.3 -9.7)"/></g><g transform="translate(9.393 13.755)"><path class="a" d="M33.85,26.645H8.291a.653.653,0,0,1-.691-.691V22.638a.653.653,0,0,1,.691-.691H29.843V12.691A.653.653,0,0,1,30.534,12H33.85a.653.653,0,0,1,.691.691V25.816C34.541,26.368,34.264,26.645,33.85,26.645ZM8.982,25.263H33.021V13.52H31.087v9.257a.653.653,0,0,1-.691.691H8.982Z" transform="translate(-7.6 -12)"/></g></g></svg>