<svg xmlns="http://www.w3.org/2000/svg" xmlns:xlink="http://www.w3.org/1999/xlink" width="26.934" height="26.934" viewBox="0 0 26.934 26.934"><defs><style>.a{fill:url(#a);}</style><linearGradient id="a" x1="0.475" y1="0.592" x2="0.186" y2="0.315" gradientUnits="objectBoundingBox"><stop offset="0" stop-color="#d501e4"/><stop offset="1" stop-color="#fff"/></linearGradient></defs><g transform="translate(-3.055 -3.055)"><g transform="translate(3.055 3.055)"><path class="a" d="M16.521,29.989A13.467,13.467,0,1,1,29.989,16.522,13.481,13.481,0,0,1,16.521,29.989Zm0-25.806a12.34,12.34,0,1,0,12.341,12.34A12.353,12.353,0,0,0,16.521,4.182Z" transform="translate(-3.055 -3.055)"/></g><g transform="translate(11.444 9.229)"><path class="a" d="M15.573,29.291a13.408,13.408,0,0,1-4.71-.864A.565.565,0,0,1,10.5,27.9V23.391a3.975,3.975,0,0,1,3.97-3.97h.795a1.519,1.519,0,0,0,1.515-1.505,3.312,3.312,0,0,1-1.437-2.723V11.851a3.323,3.323,0,0,1,3.318-3.32h2.221a3.324,3.324,0,0,1,3.319,3.32v3.343a3.308,3.308,0,0,1-1.44,2.723,1.521,1.521,0,0,0,1.52,1.505h.8a3.953,3.953,0,0,1,2.738,1.1.564.564,0,0,1,.127.631,13.784,13.784,0,0,1-3.914,5.152A13.245,13.245,0,0,1,15.573,29.291ZM11.623,27.5a12.215,12.215,0,0,0,3.949.662c3.533,0-.054-3.27,2.448-6.02.611-.665,8.177.078,8.71-1.051a2.815,2.815,0,0,0-1.66-.542h-.8A2.65,2.65,0,0,1,21.628,17.9v-.3a.562.562,0,0,1,.293-.494A2.188,2.188,0,0,0,23.069,15.2V11.852A2.2,2.2,0,0,0,20.877,9.66H18.656a2.195,2.195,0,0,0-2.191,2.193V15.2a2.191,2.191,0,0,0,1.147,1.914.566.566,0,0,1,.292.494v.3a2.648,2.648,0,0,1-2.643,2.647h-.795a2.845,2.845,0,0,0-2.842,2.842V27.5Z" transform="translate(-10.496 -8.531)"/></g></g></svg>