<svg xmlns="http://www.w3.org/2000/svg" width="26.028" height="20.37" viewBox="0 0 26.028 20.37"><defs><style>.a{fill:#fff;}</style></defs><g transform="translate(-0.5 -3)"><g transform="translate(0.5 5.376)"><path class="a" d="M9.214,23.093H1.066a.588.588,0,0,1-.453-.226A.68.68,0,0,1,.5,22.414l1.471-7.242H1.405a.535.535,0,0,1-.566-.566V7.59A2.512,2.512,0,0,1,3.329,5.1H23.472a.535.535,0,0,1,.566.566v8.94a.535.535,0,0,1-.566.566H11.364L9.779,22.64C9.779,22.98,9.553,23.093,9.214,23.093ZM1.745,21.961H8.761l1.584-7.469c0-.226.339-.453.566-.453H23.02V6.232H3.442A1.376,1.376,0,0,0,2.084,7.59v6.45h.679a.588.588,0,0,1,.453.226.68.68,0,0,1,.113.453Z" transform="translate(-0.5 -5.1)"/></g><g transform="translate(9.666 14.43)"><path class="a" d="M14.258,17.74H9.166a.566.566,0,0,1,0-1.132h4.64l.679-3.055a.577.577,0,0,1,1.132.226L14.937,17.4A.967.967,0,0,1,14.258,17.74Z" transform="translate(-8.6 -13.1)"/></g><g transform="translate(6.611 5.376)"><path class="a" d="M14.614,9.853H6.466A.535.535,0,0,1,5.9,9.287V5.666A.535.535,0,0,1,6.466,5.1h8.148a.535.535,0,0,1,.566.566V9.287A.535.535,0,0,1,14.614,9.853ZM7.032,8.721h7.016V6.232H7.032Z" transform="translate(-5.9 -5.1)"/></g><g transform="translate(7.629 22.238)"><path class="a" d="M9.742,21.132H7.366a.566.566,0,1,1,0-1.132H9.742a.535.535,0,0,1,.566.566A.606.606,0,0,1,9.742,21.132Z" transform="translate(-6.8 -20)"/></g><g transform="translate(23.02 3.566)"><path class="a" d="M20.966,7.8a.535.535,0,0,1-.566-.566V4.066a.566.566,0,0,1,1.132,0V7.234A.606.606,0,0,1,20.966,7.8Z" transform="translate(-20.4 -3.5)"/></g><g transform="translate(23.02 6.395)"><path class="a" d="M23.342,12H20.966a.535.535,0,0,1-.566-.566V6.566A.535.535,0,0,1,20.966,6h2.376a.535.535,0,0,1,.566.566v4.866A.606.606,0,0,1,23.342,12Zm-1.811-1.132h1.245V7.132H21.532Z" transform="translate(-20.4 -6)"/></g><g transform="translate(23.02 11.148)"><path class="a" d="M22.663,13.821h-1.7a.535.535,0,0,1-.566-.566v-2.49a.535.535,0,0,1,.566-.566h1.7a.535.535,0,0,1,.566.566v2.49A.535.535,0,0,1,22.663,13.821ZM21.532,12.69H22.1V11.332h-.566Z" transform="translate(-20.4 -10.2)"/></g><g transform="translate(3.103 3)"><path class="a" d="M5.742,6.508H3.366A.535.535,0,0,1,2.8,5.942V3.566A.535.535,0,0,1,3.366,3H5.742a.535.535,0,0,1,.566.566v2.49C6.308,6.282,5.969,6.508,5.742,6.508ZM3.932,5.376H5.176V4.132H3.932Z" transform="translate(-2.8 -3)"/></g><g transform="translate(1.066 11.261)"><path class="a" d="M23.52,11.432H1.566A.727.727,0,0,1,1,10.866a.606.606,0,0,1,.566-.566H23.406a.535.535,0,0,1,.566.566A.518.518,0,0,1,23.52,11.432Z" transform="translate(-1 -10.3)"/></g><g transform="translate(7.29 14.316)"><path class="a" d="M11.14,14.132H7.066a.566.566,0,0,1,0-1.132h4.187a.535.535,0,0,1,.566.566A.634.634,0,0,1,11.14,14.132Z" transform="translate(-6.5 -13)"/></g><g transform="translate(4.008 16.353)"><path class="a" d="M7.221,15.932H4.166a.566.566,0,1,1,0-1.132H7.221a.566.566,0,1,1,0,1.132Z" transform="translate(-3.6 -14.8)"/></g><g transform="translate(3.555 18.164)"><path class="a" d="M6.821,17.532H3.766a.566.566,0,1,1,0-1.132H6.821a.566.566,0,1,1,0,1.132Z" transform="translate(-3.2 -16.4)"/></g><g transform="translate(2.99 20.088)"><path class="a" d="M6.321,19.232H3.266a.566.566,0,1,1,0-1.132H6.321a.566.566,0,1,1,0,1.132Z" transform="translate(-2.7 -18.1)"/></g></g></svg>