<svg xmlns="http://www.w3.org/2000/svg" xmlns:xlink="http://www.w3.org/1999/xlink" width="23" height="22.806" viewBox="0 0 23 22.806"><defs><style>.a{fill:url(#a);}</style><linearGradient id="a" x1="0.215" y1="0.101" x2="0.891" y2="1" gradientUnits="objectBoundingBox"><stop offset="0" stop-color="#d501e4"/><stop offset="1" stop-color="#4181ff"/></linearGradient></defs><g transform="translate(-4.5 -7.025)"><g transform="translate(4.5 7.025)"><g transform="translate(1.709 5.439)"><path class="a" d="M24.715,28.892H6.222A.668.668,0,0,1,5.6,28.27V17.547a1.178,1.178,0,0,1,.311-.622l9.169-5.284a.473.473,0,0,1,.622,0l9.169,5.284a1.178,1.178,0,0,1,.311.622V28.27C25.336,28.581,25.026,28.892,24.715,28.892ZM7,27.493H24.093v-9.48L15.546,13.04,7,18.013Z" transform="translate(-5.6 -11.525)"/></g><path class="a" d="M27.034,21.2c-.155,0-.155,0-.311-.155L16.155,14.979,5.588,21.04a.706.706,0,0,1-.777,0,.807.807,0,0,1-.311-.622V14.979a.807.807,0,0,1,.311-.622L15.689,8.142a.473.473,0,0,1,.622,0l10.878,6.216a.807.807,0,0,1,.311.622v5.439a.807.807,0,0,1-.311.622A.152.152,0,0,1,27.034,21.2ZM16,13.581c.155,0,.311,0,.311.155l9.791,5.75v-3.73L16,9.54,5.9,15.446v3.73l9.791-5.75A.481.481,0,0,0,16,13.581Z" transform="translate(-4.5 -8.025)"/><g transform="translate(7.926 13.015)"><path class="a" d="M15.972,26.191H10.377a.711.711,0,0,1-.777-.622V17.177a.833.833,0,0,1,.777-.777h5.595a.711.711,0,0,1,.622.777v8.392C16.749,25.88,16.438,26.191,15.972,26.191Zm-4.818-1.4h4.2V17.8h-4.2Z" transform="translate(-9.6 -16.4)"/></g></g></g></svg>