<svg xmlns="http://www.w3.org/2000/svg" xmlns:xlink="http://www.w3.org/1999/xlink" width="14.669" height="14.669" viewBox="0 0 14.669 14.669"><defs><style>.a,.c{fill:#fff;}.b{clip-path:url(#a);}.c{fill-rule:evenodd;}</style><clipPath id="a"><path class="a" d="M0,0H14.669V14.669H0Z"/></clipPath></defs><g class="b"><path class="c" d="M12.954,6.195H11.68a4.506,4.506,0,1,1-8.715,0H1.689v6.2a.563.563,0,0,0,.564.563H12.391a.563.563,0,0,0,.564-.563Zm0-3.942a.563.563,0,0,0-.564-.563H10.7a.563.563,0,0,0-.563.563v1.69a.563.563,0,0,0,.563.563h1.689a.563.563,0,0,0,.564-.563ZM7.322,4.506a2.816,2.816,0,1,0,2.816,2.816A2.816,2.816,0,0,0,7.322,4.506m5.633,10.138H1.689A1.69,1.69,0,0,1,0,12.953V1.689A1.689,1.689,0,0,1,1.689,0H12.954a1.689,1.689,0,0,1,1.689,1.689V12.953a1.69,1.69,0,0,1-1.689,1.69"/></g></svg>