<svg xmlns="http://www.w3.org/2000/svg" xmlns:xlink="http://www.w3.org/1999/xlink" width="19.994" height="22.636" viewBox="0 0 19.994 22.636"><defs><style>.a{fill:url(#a);}</style><linearGradient id="a" x1="1" y1="0.179" x2="0" y2="0.897" gradientUnits="objectBoundingBox"><stop offset="0" stop-color="#4181ff"/><stop offset="1" stop-color="#d501e4"/></linearGradient></defs><g transform="translate(-4.403 -3.003)"><g transform="translate(9.394 3.003)"><path class="a" d="M23.019,25.639H11.37a1.678,1.678,0,0,1-1.676-1.676V17.039a.472.472,0,0,1,.472-.472.477.477,0,0,1,.477.472v1.3l4.024-4.026L10.643,10.3V11.6a.472.472,0,0,1-.472.472.477.477,0,0,1-.477-.472V4.679A1.678,1.678,0,0,1,11.37,3H23.02A1.678,1.678,0,0,1,24.7,4.679V23.962A1.679,1.679,0,0,1,23.019,25.639ZM10.636,19.683v4.279a.734.734,0,0,0,.733.733h11.65a.734.734,0,0,0,.733-.733V4.679a.734.734,0,0,0-.733-.733H11.37a.734.734,0,0,0-.733.733V8.959l5.03,5.024a.474.474,0,0,1,0,.668Z" transform="translate(-9.694 -3.003)"/></g><g transform="translate(4.403 8.688)"><g transform="translate(1.73)"><path class="a" d="M9.975,20.295a.483.483,0,0,1-.18-.036.472.472,0,0,1-.292-.436V17.852H6.709a.472.472,0,0,1-.472-.472V11.944a.472.472,0,0,1,.472-.472H9.5V9.5a.472.472,0,0,1,.806-.334l5.163,5.157a.474.474,0,0,1,0,.668l-5.163,5.165A.475.475,0,0,1,9.975,20.295ZM7.18,16.908H9.975a.472.472,0,0,1,.472.472v1.3l4.024-4.026-4.024-4.02v1.306a.472.472,0,0,1-.472.472H7.18Z" transform="translate(-6.237 -9.03)"/></g><g transform="translate(0 2.443)"><rect class="a" width="0.943" height="6.379"/></g></g></g></svg>