<svg xmlns="http://www.w3.org/2000/svg" width="55.112" height="25.231" viewBox="0 0 55.112 25.231"><defs><style>.a{fill:#fff;}</style></defs><path class="a" d="M74.941,29.612a4,4,0,1,1,.026,0ZM70.9,22.154a7.442,7.442,0,0,0-7.458,7.409l-4.652,6.671a4.473,4.473,0,0,0-.566-.025A5.646,5.646,0,0,0,55.373,37L34.3,28.529a5.58,5.58,0,1,0-5.44,6.794,5.646,5.646,0,0,0,2.855-.788L52.788,43a5.566,5.566,0,0,0,10.978-.639l7.164-5.243a7.458,7.458,0,1,0,0-14.916l-.026-.051Zm0,2.461a5,5,0,1,1-5,5,5,5,0,0,1,5-5ZM28.837,25.6a4.109,4.109,0,0,1,3.619,2.166l-2.043-.812A3.25,3.25,0,0,0,28,32.984l1.723.689a3.616,3.616,0,0,1-.886.1,4.111,4.111,0,1,1,0-8.222v.05ZM58.2,37.662a4.11,4.11,0,1,1,0,8.22,4.055,4.055,0,0,1-3.619-2.19c.665.271,1.354.542,2.02.812a3.3,3.3,0,0,0,4.258-1.8,3.256,3.256,0,0,0-1.821-4.233l-1.7-.688a3.612,3.612,0,0,1,.886-.1l-.026-.023Z" transform="translate(-23.276 -22.154)"/></svg>